<?xml version="1.0" standalone="no"?>
<!DOCTYPE svg PUBLIC "-//W3C//DTD SVG 20010904//EN"
 "http://www.w3.org/TR/2001/REC-SVG-20010904/DTD/svg10.dtd">
<svg version="1.0" xmlns="http://www.w3.org/2000/svg"
 width="620.000000pt" height="747.000000pt" viewBox="0 0 620.000000 747.000000"
 preserveAspectRatio="xMidYMid meet">

<g transform="translate(0.000000,747.000000) scale(0.100000,-0.100000)"
fill="#000000" stroke="none">
<path d="M413 7463 c236 -2 417 -7 417 -12 0 -19 -62 -302 -78 -356 -9 -30 -1
-77 10 -59 3 5 18 61 33 124 16 63 40 156 54 205 l27 90 41 3 41 3 22 -73 c12
-40 29 -106 37 -148 8 -41 23 -106 33 -145 10 -38 26 -110 34 -160 9 -49 20
-106 26 -125 7 -25 6 -49 -5 -90 -7 -30 -16 -89 -19 -130 -2 -41 -13 -98 -25
-127 l-20 -52 26 -82 c14 -46 39 -105 55 -131 29 -47 30 -49 14 -82 -9 -19
-16 -38 -16 -43 0 -5 -11 -15 -25 -21 -14 -7 -37 -17 -51 -24 -14 -7 -40 -36
-57 -65 -17 -29 -38 -53 -45 -53 -20 0 -92 -81 -99 -110 -7 -31 -42 -91 -62
-106 -8 -6 -11 -18 -8 -28 8 -20 -10 -69 -22 -62 -11 7 -37 -22 -50 -57 -6
-15 -17 -27 -26 -27 -8 0 -16 -9 -16 -20 -2 -33 -4 -38 -11 -46 -5 -4 -8 -18
-8 -31 0 -13 -5 -23 -12 -23 -6 0 -9 -3 -5 -6 3 -4 0 -13 -8 -21 -18 -17 -19
-56 -4 -85 22 -41 6 -174 -29 -243 -16 -31 -44 -190 -46 -260 -1 -22 -7 -50
-14 -62 -17 -30 -15 -51 9 -103 11 -25 22 -64 24 -87 2 -23 9 -52 16 -65 7
-13 13 -52 13 -88 1 -66 -8 -94 -81 -265 -14 -33 -31 -75 -37 -93 -7 -18 -14
-30 -17 -28 -2 2 -1 60 3 128 23 405 23 397 -1 391 -18 -5 -21 -1 -21 23 1 16
7 40 15 54 20 35 18 56 -4 56 -24 0 -26 -8 -41 -166 -7 -69 -18 -147 -25 -175
-8 -27 -16 -70 -20 -95 -10 -75 -48 -190 -63 -190 -10 0 -12 -10 -7 -44 7 -47
-1 -78 -15 -56 -4 6 -38 16 -76 21 -38 5 -87 13 -109 19 -87 21 -85 23 -85
-89 l0 -99 63 -10 c53 -8 56 -10 22 -11 -89 -3 -85 4 -83 -150 1 -75 3 -117 5
-93 3 33 8 42 22 42 14 0 21 10 25 36 4 19 10 42 13 50 4 10 -3 14 -22 14 -36
0 -24 14 31 35 30 11 49 14 56 7 14 -14 -6 -118 -56 -297 -37 -131 -78 -347
-74 -392 l3 -38 52 78 c37 56 55 93 63 134 5 31 15 62 21 68 9 7 10 3 5 -18
-4 -15 -11 -71 -16 -125 -13 -132 -25 -196 -48 -267 -11 -33 -23 -80 -26 -105
-4 -24 -16 -65 -28 -90 -16 -35 -20 -62 -19 -125 1 -44 6 -83 10 -87 4 -4 21
-4 39 1 25 8 36 6 57 -11 14 -10 25 -27 25 -36 1 -13 6 -11 25 10 36 41 85 35
85 -10 0 -41 14 -15 15 28 1 21 8 47 17 57 23 27 88 210 99 278 5 33 11 96 15
140 7 96 19 149 45 191 23 39 54 167 117 499 55 286 82 449 82 493 0 17 6 32
15 35 18 7 15 12 60 -103 38 -100 122 -309 149 -372 9 -20 21 -40 27 -44 6 -3
24 -33 39 -66 16 -33 37 -70 48 -82 49 -54 100 -186 73 -186 -6 0 -19 -17 -29
-37 -9 -21 -19 -40 -22 -43 -17 -17 -59 -89 -63 -110 -4 -14 -29 -51 -57 -82
-59 -67 -65 -97 -19 -94 43 2 46 -15 9 -54 -18 -19 -29 -39 -25 -48 3 -8 -1
-22 -8 -31 -18 -20 -29 -89 -16 -97 6 -3 8 -13 5 -21 -4 -9 1 -21 10 -27 14
-11 15 -19 3 -71 -7 -32 -21 -65 -30 -74 -13 -10 -16 -23 -12 -43 4 -20 0 -35
-12 -48 -16 -18 -16 -20 -1 -26 20 -8 21 -55 1 -94 -10 -19 -15 -53 -14 -97 2
-56 -3 -77 -24 -119 -14 -28 -39 -62 -54 -75 -20 -17 -29 -35 -31 -59 -3 -44
-21 -89 -44 -112 -10 -10 -18 -24 -18 -32 0 -7 -7 -19 -15 -26 -8 -7 -29 -42
-47 -77 -17 -36 -37 -67 -44 -70 -7 -3 -16 -19 -20 -36 -3 -18 -10 -36 -14
-42 -14 -18 -42 -126 -36 -140 3 -8 1 -17 -5 -21 -5 -3 -9 -32 -8 -64 2 -46
-2 -63 -19 -85 -12 -15 -22 -42 -22 -59 0 -17 -7 -40 -15 -50 -10 -13 -13 -32
-9 -56 4 -26 2 -41 -9 -51 -13 -12 -12 -17 10 -43 19 -23 24 -39 22 -72 -2
-24 0 -46 4 -50 18 -18 6 -63 -24 -88 -25 -21 -38 -25 -64 -20 -18 3 -42 1
-54 -6 -21 -11 -21 -12 -4 -43 32 -58 33 -59 61 -36 16 12 28 16 30 10 2 -6
21 -11 43 -11 47 0 49 -10 14 -76 -27 -50 -33 -98 -13 -92 7 3 16 19 21 38 14
55 56 82 58 38 1 -13 1 -27 0 -32 -1 -4 5 -19 13 -31 25 -38 29 -96 13 -152
-9 -28 -13 -53 -11 -56 3 -2 0 -16 -5 -31 -9 -21 -8 -26 5 -26 8 0 12 -5 9
-10 -4 -7 2 -9 18 -5 14 4 28 2 32 -5 10 -16 -4 -80 -17 -80 -6 0 -9 3 -5 6
11 11 -45 75 -84 95 -113 57 -258 -23 -259 -143 l-1 -33 -18 34 c-12 22 -21
30 -25 22 -5 -7 3 -23 18 -38 14 -14 26 -30 26 -34 0 -16 106 -10 120 6 16 20
88 20 110 0 15 -13 288 -15 2366 -13 2265 3 2348 4 2314 21 -35 18 -90 86 -90
111 0 8 10 16 23 20 21 6 20 7 -16 38 -38 33 -38 34 -30 83 13 75 33 72 128
-19 43 -42 82 -76 87 -76 13 0 -18 43 -46 63 -28 21 -71 119 -62 143 7 18 37
12 78 -17 34 -24 42 -11 28 42 -9 33 -9 44 3 57 14 16 18 33 32 122 3 18 17
49 31 67 15 20 25 45 24 61 -3 43 -2 47 30 66 17 9 29 24 28 31 -2 8 5 20 15
27 11 8 18 28 19 56 1 24 5 45 10 48 4 3 8 13 8 24 0 10 7 20 15 24 17 6 20
42 5 51 -19 12 1 25 37 25 l36 0 -5 50 c-5 47 -4 50 25 59 23 8 28 15 22 28
-21 48 -17 68 22 113 32 38 38 52 37 88 -1 27 -8 51 -21 65 -11 12 -30 39 -42
59 l-22 37 28 15 c42 21 78 66 91 111 19 68 23 139 10 157 -14 17 -166 50
-318 69 -47 5 -114 14 -150 19 -130 19 -412 42 -436 36 -16 -4 -24 -13 -22
-23 2 -11 -7 -19 -27 -24 -40 -11 -50 2 -34 48 8 21 14 46 14 57 0 32 29 42
72 24 22 -10 81 -19 143 -22 58 -3 141 -11 185 -16 183 -24 314 -41 370 -50
33 -5 94 -12 135 -16 l75 -6 -25 19 c-14 11 -45 23 -70 26 -25 3 -85 13 -135
22 -49 9 -142 20 -205 25 -196 14 -334 32 -355 46 -18 13 -18 14 10 14 17 0
59 -5 95 -11 36 -6 99 -12 140 -13 201 -8 307 -23 392 -57 55 -22 121 -25 140
-5 9 8 12 28 10 52 -3 34 -10 44 -48 71 l-45 31 38 18 c39 19 74 71 56 83 -18
11 -33 50 -33 84 0 27 -5 36 -22 42 -13 4 -28 7 -34 6 -6 -1 -17 6 -24 14 -7
8 -8 15 -4 15 5 0 10 18 10 40 1 22 7 46 13 54 12 14 5 66 -9 66 -4 0 -15 16
-26 36 -14 27 -33 43 -74 62 -59 27 -52 42 10 22 34 -11 41 -11 56 4 9 9 15
18 13 19 -30 20 -86 63 -91 71 -4 6 -5 19 -2 29 4 12 -2 26 -15 38 -12 11 -21
17 -21 13 0 -9 -69 43 -102 78 -16 15 -28 32 -28 38 0 5 -6 10 -13 10 -7 0
-19 6 -25 12 -7 7 -17 14 -22 14 -6 1 -12 2 -15 3 -3 0 22 28 54 62 33 34 61
70 63 82 2 11 11 21 21 23 29 4 51 29 86 98 17 35 50 83 72 107 22 24 56 69
76 99 20 30 41 59 47 65 36 31 205 264 231 318 8 18 17 43 20 56 6 32 37 115
46 121 3 3 10 15 14 28 5 17 2 27 -12 37 -14 11 -16 16 -5 26 6 7 12 28 12 46
0 18 5 33 10 33 6 0 10 7 10 15 0 8 -7 15 -16 15 -16 0 -74 55 -74 70 0 17 45
45 78 47 20 2 43 4 50 5 6 1 12 11 12 22 0 17 -2 18 -10 6 -8 -12 -10 -11 -10
6 0 12 -12 29 -26 39 -24 15 -27 16 -44 0 -18 -16 -19 -15 -13 36 7 72 7 65
-6 139 -20 106 -40 166 -61 185 -38 34 -26 48 35 40 45 -5 55 -4 55 9 0 8 -5
18 -11 22 -8 4 -7 9 2 15 11 6 11 11 1 21 -18 18 -15 45 10 73 28 33 38 32 38
-4 0 -24 4 -28 25 -28 26 0 33 11 15 22 -6 4 -8 10 -5 15 3 4 -2 13 -10 20 -8
7 -15 18 -15 25 0 8 -5 15 -12 17 -7 3 -11 23 -10 54 2 47 -18 101 -35 97 -13
-4 -24 49 -18 89 3 20 1 40 -5 43 -5 3 -10 14 -10 24 0 10 -19 31 -42 47 -92
63 -108 79 -108 113 0 16 10 41 22 56 15 20 18 30 10 33 -7 2 -12 12 -12 23 0
10 -4 19 -8 19 -13 0 -87 79 -116 122 -14 20 -24 50 -24 65 1 33 -33 87 -91
142 -39 38 -51 72 -33 96 13 18 68 33 86 23 11 -6 16 -5 16 3 0 7 3 10 6 6 9
-9 84 31 90 47 3 8 15 16 26 19 18 5 20 10 13 39 -4 18 -9 64 -11 102 -2 50
-8 74 -22 90 -10 11 -22 29 -25 38 -3 10 -21 24 -39 32 -29 12 -31 15 -14 21
11 5 32 3 49 -3 37 -14 44 -10 22 12 -15 15 -15 22 9 94 27 82 45 166 53 247
5 53 31 125 45 125 4 0 8 7 8 15 0 8 18 59 41 112 22 54 49 118 59 143 27 68
74 173 83 188 6 8 45 12 138 12 l129 0 3 -3732 2 -3733 3 3738 2 3737 -3097
-2 c-1704 -2 -2910 -4 -2680 -5z m4757 -8 c0 -10 -51 -54 -71 -60 -12 -4 -43
-23 -69 -41 -26 -19 -52 -34 -59 -34 -6 0 -11 -3 -11 -8 0 -4 -13 -13 -29 -20
-16 -7 -55 -40 -87 -73 -33 -33 -76 -69 -96 -79 -39 -21 -93 -26 -102 -11 -3
5 -18 12 -33 16 -35 8 -100 60 -108 86 -4 12 -19 22 -36 26 -18 3 -41 20 -56
39 -14 19 -34 34 -44 34 -10 0 -22 7 -27 16 -10 18 -105 38 -135 28 -10 -3
-48 7 -86 21 -75 30 -98 30 -115 1 -32 -57 -66 -71 -106 -43 -13 9 -30 17 -37
17 -7 0 -13 4 -13 9 0 12 -182 4 -234 -10 -26 -7 -53 -7 -85 0 -62 14 -141 25
-167 22 -11 -1 -27 5 -34 13 -15 19 -61 21 -78 4 -9 -9 -47 -13 -112 -14 -92
0 -101 -2 -136 -29 -24 -19 -39 -25 -42 -17 -2 7 -20 12 -41 12 -20 0 -41 4
-46 9 -6 5 -32 12 -60 15 -149 19 -141 19 -202 -12 -32 -16 -78 -37 -103 -47
-74 -29 -134 -59 -156 -78 -18 -15 -28 -16 -64 -8 -23 5 -48 19 -57 30 -8 12
-24 21 -37 21 -15 0 -42 23 -85 70 -34 39 -67 70 -72 70 -6 0 -17 7 -25 15
-14 13 161 15 1570 15 872 0 1586 -2 1586 -5z m-125 -935 c-3 -5 -1 -10 4 -10
6 0 11 -9 11 -19 0 -10 14 -34 31 -52 21 -23 26 -34 18 -40 -9 -5 -8 -11 4
-24 10 -9 15 -20 12 -25 -3 -4 4 -6 15 -3 15 4 18 9 10 18 -17 20 8 30 36 14
18 -9 23 -18 18 -32 -4 -12 -2 -17 4 -13 5 3 15 -1 22 -9 7 -8 16 -12 21 -9 5
3 9 1 9 -5 0 -6 14 -24 30 -41 17 -17 30 -38 30 -47 0 -9 10 -27 21 -39 31
-33 19 -54 -32 -54 -56 0 -117 35 -135 78 -7 19 -22 36 -32 39 -28 7 -55 69
-41 94 6 12 9 23 7 25 -9 8 -58 -22 -58 -36 0 -10 -3 -11 -8 -4 -12 18 -53 24
-59 8 -7 -20 -40 -18 -51 4 -5 9 -6 41 -2 71 7 57 24 78 85 106 37 17 38 17
30 5z m-4059 -1250 c28 0 37 -22 35 -81 -2 -27 3 -50 9 -54 9 -5 10 -1 6 12
-10 31 6 64 24 52 13 -8 13 -11 -1 -19 -12 -7 -15 -22 -12 -62 2 -29 0 -46 -4
-38 -15 28 -83 6 -83 -28 0 -5 -9 -17 -20 -27 -15 -13 -20 -31 -20 -67 0 -26
5 -48 10 -48 6 0 10 -9 10 -19 0 -11 9 -36 21 -55 17 -30 19 -41 11 -66 -6
-16 -7 -32 -3 -35 5 -2 9 -16 9 -30 0 -16 16 -43 46 -75 46 -49 58 -88 30 -97
-13 -4 -111 92 -120 119 -7 24 -59 124 -94 182 -42 69 -39 244 6 375 9 26 24
42 55 59 29 15 46 19 53 12 5 -5 20 -10 32 -10z m4389 -120 c3 -5 23 -10 44
-10 22 0 44 -6 51 -15 7 -8 19 -15 26 -15 8 0 22 -4 32 -9 9 -5 41 -20 69 -32
47 -20 54 -27 68 -68 50 -154 34 -310 -50 -486 -50 -104 -152 -221 -269 -309
-82 -62 -248 -147 -321 -165 -27 -7 -68 -17 -90 -23 -21 -5 -80 -10 -130 -9
-53 0 -106 -5 -129 -13 -29 -10 -48 -11 -68 -4 -16 6 -43 8 -61 5 -18 -2 -47
2 -66 9 -18 8 -44 14 -58 14 -13 0 -34 11 -47 25 -13 14 -28 25 -34 25 -6 0
-25 14 -42 30 -17 17 -37 30 -44 30 -18 0 -37 31 -68 115 -69 184 -79 236 -54
283 22 42 129 135 195 170 33 17 65 16 58 -3 -4 -8 -1 -17 4 -21 7 -4 7 -10 1
-16 -11 -11 15 -88 30 -88 4 0 8 -8 8 -18 0 -23 19 -42 42 -42 10 0 26 -4 36
-9 9 -6 38 -17 64 -27 57 -20 77 -39 51 -49 -32 -12 11 -34 56 -28 36 5 38 3
61 -39 45 -86 112 -88 235 -8 121 79 185 156 191 229 1 20 13 45 29 61 23 24
27 38 30 92 1 34 3 68 5 73 12 44 -25 85 -76 85 -45 0 -74 15 -74 40 0 23 36
50 66 50 12 0 33 9 47 20 22 17 32 19 67 11 23 -5 39 -7 36 -4 -3 3 1 18 9 34
8 15 15 40 15 54 0 46 37 83 55 55z m-4335 -189 c0 -11 -49 -21 -67 -14 -7 3
-10 9 -7 14 7 12 74 12 74 0z m-53 -47 c-3 -3 -12 -4 -19 -1 -8 3 -5 6 6 6 11
1 17 -2 13 -5z m933 -264 c0 -5 6 -10 14 -10 26 0 46 -42 46 -95 0 -46 -7 -61
-59 -142 -33 -50 -69 -94 -80 -98 -12 -3 -35 -18 -52 -32 -28 -24 -39 -26
-124 -28 -52 -1 -92 1 -91 4 2 3 -12 6 -31 7 -25 0 -41 8 -53 24 -15 19 -29
24 -81 28 -70 5 -95 17 -66 33 9 6 17 19 17 31 0 19 5 20 80 16 44 -2 80 1 80
5 0 5 5 5 10 2 12 -7 70 16 70 27 0 5 10 8 23 8 12 0 28 9 35 21 13 20 14 20
28 2 13 -17 15 -17 37 10 12 15 30 27 40 27 11 0 17 8 17 24 0 13 6 26 14 29
8 3 16 16 18 28 2 13 22 38 46 56 45 34 62 40 62 23z m-750 -192 c17 -11 22
-10 29 0 6 11 15 10 45 -5 30 -14 37 -22 33 -39 -2 -15 0 -21 9 -17 24 9 25
-17 0 -28 -14 -7 -23 -15 -20 -20 8 -14 -56 9 -82 30 -22 18 -24 22 -10 27 21
8 2 34 -25 34 -11 0 -19 5 -19 11 0 5 -5 7 -12 3 -7 -4 -8 -3 -4 4 9 15 31 15
56 0z m3505 -27 c3 -5 1 -12 -4 -15 -5 -3 -11 1 -15 9 -6 16 9 21 19 6z m-690
-367 c17 -4 20 -12 17 -55 -2 -27 -7 -49 -11 -49 -9 0 -61 49 -61 58 0 4 3 17
6 30 7 23 15 26 49 16z m34 -256 c11 -6 26 -8 37 -3 55 23 91 5 75 -37 -5 -14
-4 -44 2 -77 10 -46 18 -59 59 -94 51 -43 51 -42 33 -133 -6 -30 -79 -42 -106
-18 -11 10 -19 21 -19 26 0 14 -27 38 -42 38 -25 0 -37 -21 -31 -56 9 -55 -20
-42 -56 25 -21 41 -31 74 -32 107 -2 60 11 143 22 150 5 3 9 14 9 25 0 21 17
59 25 59 3 0 14 -5 24 -12z m216 -399 c4 -5 0 -18 -9 -28 -9 -10 -16 -23 -16
-29 0 -23 -28 -12 -33 13 -6 35 42 71 58 44z m905 -392 c0 -18 -45 -41 -60
-32 -9 6 -6 13 11 26 28 22 49 24 49 6z m-1433 -43 c3 -8 -1 -22 -8 -29 -19
-17 -99 -31 -99 -16 0 6 11 11 24 11 17 0 26 7 30 25 7 29 43 35 53 9z m-123
-24 c0 -13 -5 -25 -12 -28 -8 -2 -12 7 -12 28 0 21 4 30 12 28 7 -3 12 -15 12
-28z m1456 -29 c0 -13 -73 -66 -87 -63 -6 1 -20 -9 -31 -23 -11 -14 -24 -25
-30 -25 -6 0 -13 -13 -17 -29 -8 -36 -22 -49 -65 -57 -32 -7 -33 -7 -26 22 4
16 12 31 17 32 5 2 9 10 9 17 0 7 10 15 23 19 32 8 69 41 65 59 -6 27 43 56
95 57 26 0 47 -4 47 -9z m330 -107 c0 -8 -4 -12 -10 -9 -5 3 -10 10 -10 16 0
5 5 9 10 9 6 0 10 -7 10 -16z m-1688 -90 c-5 -27 -20 -27 -36 -1 -8 13 -6 20
9 31 24 17 34 5 27 -30z m1643 26 c3 -5 1 -10 -4 -10 -6 0 -11 5 -11 10 0 6 2
10 4 10 3 0 8 -4 11 -10z m-566 -181 c0 -66 -4 -119 -7 -119 -11 0 -64 -55
-92 -94 -18 -25 -33 -36 -52 -36 -15 0 -30 -4 -33 -10 -12 -20 -50 -10 -82 22
-40 38 -41 54 -8 92 20 23 28 27 37 18 18 -18 81 -15 98 6 26 29 50 66 50 75
0 5 -21 7 -47 5 -29 -2 -48 1 -50 8 -2 7 23 36 57 65 33 29 60 58 60 64 0 20
21 32 46 27 24 -4 24 -5 23 -123z m-1075 47 c-5 -23 -11 -26 -47 -26 l-40 0
44 29 c24 17 45 28 47 27 2 -2 0 -15 -4 -30z m876 -86 c0 -5 -2 -10 -4 -10 -3
0 -8 5 -11 10 -3 6 -1 10 4 10 6 0 11 -4 11 -10z m-850 -39 c0 -26 -17 -44
-34 -38 -18 7 -21 32 -6 42 6 4 8 10 5 15 -3 4 4 6 15 3 11 -3 20 -13 20 -22z
m1760 -47 c0 -8 -5 -12 -10 -9 -6 4 -8 11 -5 16 9 14 15 11 15 -7z m-1066
-182 c-1 -2 -12 -1 -23 3 -26 8 -27 30 -3 44 14 8 18 5 23 -17 3 -15 4 -29 3
-30z m-98 -161 c-5 -8 -12 -7 -22 4 -9 8 -12 20 -8 26 4 8 11 6 21 -4 9 -8 12
-20 9 -26z m364 29 c0 -5 -7 -7 -15 -4 -8 4 -15 8 -15 10 0 2 7 4 15 4 8 0 15
-4 15 -10z m-247 -126 c11 -11 -5 -34 -24 -34 -18 0 -26 20 -12 33 8 9 28 9
36 1z m165 -151 c-9 -19 -22 -29 -41 -31 -34 -4 -36 16 -4 45 45 42 68 34 45
-14z m163 -250 c82 -37 103 -60 47 -48 -31 7 -100 41 -143 71 -39 28 14 15 96
-23z m-1177 -525 c20 -8 23 -14 15 -24 -6 -7 -8 -18 -5 -23 4 -6 2 -18 -3 -28
-5 -10 -14 -38 -21 -63 -20 -75 -41 -119 -55 -114 -7 3 -15 -5 -18 -17 -4 -13
-9 -20 -13 -16 -11 11 18 227 32 242 8 7 14 20 14 28 0 13 5 18 27 26 1 1 13
-4 27 -11z m-3219 -1003 c0 -27 -3 -30 -30 -30 -21 0 -31 5 -33 18 -6 33 6 49
35 45 24 -3 28 -8 28 -33z"/>
<path d="M951 4814 c0 -11 3 -14 6 -6 3 7 2 16 -1 19 -3 4 -6 -2 -5 -13z"/>
<path d="M0 7227 l0 -143 38 -39 c186 -195 406 -451 432 -502 8 -15 25 -38 38
-51 13 -12 20 -27 17 -32 -4 -6 -1 -26 5 -45 6 -19 8 -40 3 -47 -4 -7 -6 -65
-5 -128 3 -99 0 -128 -23 -210 -14 -52 -37 -144 -51 -204 -13 -61 -26 -111
-28 -113 -1 -2 -2 45 -2 104 1 60 -3 110 -9 113 -21 11 -47 -113 -48 -230 -1
-63 1 -124 3 -135 4 -14 0 -19 -10 -18 -13 2 -21 -22 -39 -115 -13 -64 -25
-135 -27 -157 -1 -22 -7 -65 -12 -95 -6 -30 -13 -84 -16 -120 l-5 -65 20 65
c10 36 22 81 24 100 8 58 20 93 34 98 9 3 11 -5 6 -32 -9 -46 17 -51 35 -6 7
16 16 27 20 25 12 -8 44 142 43 199 -1 27 2 44 7 37 9 -16 30 39 30 78 -1 26
-1 26 -17 6 -9 -11 -14 -14 -11 -5 3 8 11 49 18 90 13 79 28 122 40 115 18
-11 33 30 35 93 3 65 10 116 59 402 13 74 21 141 18 148 -6 17 -39 15 -46 -4
-5 -13 -9 -14 -21 -4 -20 17 -19 60 2 75 15 11 22 9 46 -11 25 -21 35 -23 90
-18 46 4 66 10 76 24 7 11 22 20 32 20 11 0 19 1 19 3 0 2 -39 43 -88 93 -48
49 -137 145 -197 212 -127 143 -141 158 -358 394 -89 97 -165 177 -169 177 -5
1 -8 -63 -8 -142z m431 -1828 c-10 -23 -10 -23 -10 7 -1 17 2 34 7 38 11 12
14 -18 3 -45z"/>
<path d="M815 6453 c-32 -8 -42 -23 -14 -22 29 2 89 16 72 18 -6 0 -17 3 -25
5 -7 2 -22 1 -33 -1z"/>
<path d="M642 6343 c-18 -82 -24 -143 -13 -143 7 0 18 30 26 70 0 3 9 27 20
53 16 41 16 50 4 58 -23 14 -27 11 -37 -38z"/>
<path d="M617 6183 c-4 -3 -7 -16 -6 -27 0 -19 1 -19 10 3 10 24 8 36 -4 24z"/>
<path d="M597 6117 c-3 -8 -1 -20 4 -28 6 -10 9 -7 9 14 0 29 -5 35 -13 14z"/>
<path d="M5601 6062 c-1 -13 3 -21 8 -17 5 3 12 1 16 -5 7 -12 25 -4 25 11 0
5 -9 9 -19 9 -11 0 -22 6 -24 13 -3 6 -6 2 -6 -11z"/>
<path d="M486 5644 c-4 -20 -5 -38 -2 -41 2 -3 8 11 12 31 3 21 4 39 1 42 -2
3 -8 -11 -11 -32z"/>
<path d="M542 5272 c-11 -25 -11 -25 4 -10 9 9 15 21 13 27 -2 6 -10 -2 -17
-17z"/>
<path d="M392 5210 c0 -14 2 -19 5 -12 2 6 2 18 0 25 -3 6 -5 1 -5 -13z"/>
<path d="M290 4866 c0 -8 5 -18 10 -21 6 -3 10 1 10 9 0 8 -4 18 -10 21 -5 3
-10 -1 -10 -9z"/>
<path d="M180 4660 c0 -5 5 -10 10 -10 6 0 10 5 10 10 0 6 -4 10 -10 10 -5 0
-10 -4 -10 -10z"/>
<path d="M176 4621 c-4 -5 -8 -29 -10 -53 -2 -24 -2 -35 1 -25 2 9 9 15 14 12
5 -4 9 12 9 34 0 41 -4 49 -14 32z"/>
<path d="M161 4494 c0 -11 3 -14 6 -6 3 7 2 16 -1 19 -3 4 -6 -2 -5 -13z"/>
<path d="M298 4430 c-31 -140 -40 -192 -34 -197 8 -8 12 6 36 124 12 56 20
112 18 125 -2 13 -10 -8 -20 -52z"/>
<path d="M140 4435 c-11 -13 -10 -14 4 -9 9 3 16 10 16 15 0 13 -6 11 -20 -6z"/>
<path d="M250 4201 c0 -6 5 -13 10 -16 6 -3 10 1 10 9 0 9 -4 16 -10 16 -5 0
-10 -4 -10 -9z"/>
<path d="M165 4190 c3 -5 8 -10 11 -10 2 0 4 5 4 10 0 6 -5 10 -11 10 -5 0 -7
-4 -4 -10z"/>
<path d="M1 3410 l1 -55 10 44 c7 30 6 47 -1 54 -8 8 -11 -4 -10 -43z"/>
<path d="M5230 3011 c0 -6 13 -25 28 -41 23 -23 40 -31 85 -36 31 -4 57 -4 57
0 0 3 -25 22 -55 41 -59 38 -115 55 -115 36z"/>
<path d="M41 2784 c0 -11 3 -14 6 -6 3 7 2 16 -1 19 -3 4 -6 -2 -5 -13z"/>
<path d="M88 2197 c-6 -16 1 -37 13 -37 12 0 12 37 0 44 -5 3 -11 0 -13 -7z"/>
<path d="M6 2193 c-9 -9 -7 -33 3 -33 12 0 22 28 12 34 -5 3 -11 3 -15 -1z"/>
<path d="M40 2105 c-11 -13 -10 -23 0 -56 13 -40 32 -47 38 -15 2 9 -2 24 -10
33 -7 9 -12 24 -10 35 4 22 -1 23 -18 3z"/>
<path d="M64 635 c0 -14 6 -25 12 -25 7 0 11 11 10 25 0 14 -6 25 -12 25 -7 0
-11 -11 -10 -25z"/>
<path d="M116 405 c-61 -73 -26 -118 57 -73 35 20 42 29 45 58 2 30 -2 37 -25
48 -37 16 -34 18 -77 -33z"/>
<path d="M5307 439 c7 -7 15 -10 18 -7 3 3 -2 9 -12 12 -14 6 -15 5 -6 -5z"/>
<path d="M5344 345 c-4 -11 -14 -26 -21 -33 -19 -20 -16 -60 6 -71 10 -6 21
-7 25 -4 3 3 6 -1 6 -10 0 -21 24 -33 82 -40 39 -5 49 -3 60 12 15 21 87 30
121 16 10 -4 20 -5 23 -2 3 3 26 -3 51 -14 25 -11 48 -17 51 -15 8 9 -56 66
-74 66 -9 0 -32 11 -50 25 -18 14 -39 25 -46 25 -8 0 -33 -18 -56 -40 -45 -44
-65 -48 -102 -23 -32 21 -42 38 -56 88 -10 34 -12 37 -20 20z"/>
<path d="M5220 136 c0 -8 -5 -16 -12 -18 -7 -3 -6 -7 5 -11 13 -5 17 -1 17 18
0 14 -2 25 -5 25 -3 0 -5 -6 -5 -14z"/>
<path d="M5582 100 c2 -8 13 -18 24 -24 10 -6 31 -19 46 -29 28 -19 128 -32
128 -17 0 11 -49 50 -62 50 -5 0 -6 -9 -3 -20 9 -27 1 -25 -35 10 -17 16 -36
30 -43 30 -7 0 -23 3 -36 7 -17 4 -22 2 -19 -7z"/>
<path d="M5913 80 c8 -12 25 -28 36 -36 19 -14 21 -13 21 4 0 22 -15 36 -49
47 -23 7 -23 6 -8 -15z"/>
</g>
</svg>
