<?xml version="1.0" standalone="no"?>
<!DOCTYPE svg PUBLIC "-//W3C//DTD SVG 20010904//EN"
 "http://www.w3.org/TR/2001/REC-SVG-20010904/DTD/svg10.dtd">
<svg version="1.0" xmlns="http://www.w3.org/2000/svg"
 width="500.000000pt" height="500.000000pt" viewBox="0 0 500.000000 500.000000"
 preserveAspectRatio="xMidYMid meet">
<metadata>
Created by potrace 1.14, written by Peter Selinger 2001-2017
</metadata>
<g transform="translate(0.000000,500.000000) scale(0.100000,-0.100000)"
fill="#000000" stroke="none">
<path d="M2676 4963 c-8 -54 -6 -429 3 -486 9 -54 20 -70 43 -62 25 10 27 43
21 323 l-6 262 -27 0 c-24 0 -28 -5 -34 -37z"/>
<path d="M3955 4595 c-77 -96 -164 -205 -193 -242 -29 -36 -51 -73 -50 -82 5
-25 38 -25 65 1 68 63 363 453 363 479 0 13 -7 19 -22 19 -18 0 -57 -43 -163
-175z"/>
<path d="M1150 4545 c-11 -13 -11 -20 0 -39 13 -26 277 -379 336 -452 37 -45
70 -56 81 -28 9 23 -21 71 -145 232 -186 243 -234 302 -247 302 -7 0 -18 -7
-25 -15z"/>
<path d="M4915 3793 c-50 -11 -443 -126 -478 -140 -29 -12 -37 -20 -35 -37 3
-18 9 -21 48 -20 44 2 416 105 493 137 39 17 51 50 21 61 -16 6 -17 6 -49 -1z"/>
<path d="M414 3366 c-10 -27 3 -44 43 -56 88 -25 658 -110 737 -110 61 0 77
56 21 72 -16 4 -104 17 -195 28 -91 11 -235 31 -320 45 -247 38 -279 40 -286
21z"/>
<path d="M2693 3340 c-63 -38 -84 -121 -60 -235 14 -64 14 -73 -1 -99 -21 -35
-80 -68 -127 -69 -53 -1 -59 11 -46 85 22 130 11 230 -31 275 -38 41 -114 26
-149 -29 -17 -28 -19 -44 -15 -97 6 -65 45 -167 86 -218 26 -33 25 -86 -3
-143 -16 -34 -27 -44 -42 -42 -11 1 -37 5 -57 9 -55 8 -103 -4 -137 -36 -93
-87 28 -166 169 -111 28 11 55 20 60 20 25 0 85 -176 112 -330 15 -87 19 -844
5 -1022 l-9 -108 -48 0 c-27 0 -52 -5 -55 -10 -3 -6 -17 -10 -30 -10 -38 0
-94 -39 -115 -81 -37 -72 -18 -170 50 -257 l21 -25 -31 -29 c-59 -54 -75 -130
-41 -203 18 -41 66 -89 106 -107 21 -9 20 -11 -12 -43 -47 -47 -46 -95 2 -141
20 -18 53 -39 74 -45 34 -10 40 -16 45 -49 8 -51 42 -89 108 -122 131 -66 328
-77 443 -24 33 15 68 35 78 44 26 24 54 80 62 127 4 22 18 51 30 65 36 40 55
85 55 132 0 40 3 45 36 63 50 27 77 84 77 161 0 64 -28 141 -63 179 -19 21
-19 21 3 65 15 32 23 67 25 120 4 90 -15 127 -76 156 -23 11 -43 27 -45 37 -4
11 -15 17 -35 17 l-29 0 -6 83 c-39 503 16 1416 86 1443 7 2 32 -2 56 -11 57
-20 107 -19 156 4 73 33 104 89 81 145 -30 72 -135 75 -239 8 -35 -23 -69 -42
-75 -42 -13 0 -68 72 -78 102 -4 13 7 37 34 77 81 114 90 205 27 268 -41 41
-81 44 -119 8 -56 -52 -69 -122 -46 -239 14 -67 14 -69 -9 -87 -35 -28 -113
-25 -166 6 -24 13 -46 32 -49 41 -4 11 9 43 35 88 65 111 66 216 2 245 -33 15
-43 14 -80 -9z m52 -89 c4 -20 -1 -46 -16 -81 -25 -58 -39 -52 -39 17 0 78 41
126 55 64z m-348 -51 c13 -36 8 -157 -7 -173 -18 -19 -69 164 -56 198 11 29
50 14 63 -25z m697 8 c8 -22 3 -39 -24 -94 -27 -56 -35 -65 -41 -49 -12 30
-10 134 2 156 15 28 51 21 63 -13z m-370 -275 c17 -14 45 -32 63 -40 42 -17
141 -16 173 2 35 20 37 19 55 -16 9 -16 32 -47 50 -68 l35 -38 -29 -84 c-33
-96 -47 -195 -61 -429 -15 -254 -22 -738 -13 -907 7 -132 6 -154 -7 -159 -8
-4 -115 -9 -237 -12 l-223 -5 0 49 c1 27 5 208 10 403 9 376 1 643 -24 773
-21 109 -59 211 -95 257 -34 43 -38 66 -16 95 8 10 19 42 26 70 l11 52 57 -4
c64 -5 117 16 160 62 14 14 26 26 29 26 2 0 18 -12 36 -27z m670 -82 c20 -32
-43 -67 -117 -64 -76 2 -76 8 7 56 32 18 101 23 110 8z m-1144 -150 c0 -12
-26 -21 -58 -21 -26 1 -26 1 -8 15 22 16 66 20 66 6z"/>
<path d="M4353 2533 c-21 -8 -15 -40 12 -61 14 -11 153 -84 310 -163 264 -133
286 -142 301 -127 36 35 5 59 -278 212 -233 126 -305 156 -345 139z"/>
<path d="M1215 2131 c-121 -57 -407 -233 -435 -266 -6 -8 -10 -22 -8 -32 6
-26 52 -20 107 15 149 95 262 163 342 207 101 56 122 75 113 99 -9 24 -30 20
-119 -23z"/>
<path d="M3947 1893 c-15 -14 -5 -34 39 -84 81 -92 304 -270 372 -298 35 -15
62 -9 62 13 0 8 -57 60 -127 115 -71 54 -168 135 -218 180 -84 75 -111 91
-128 74z"/>
</g>
</svg>
